<svg xmlns="http://www.w3.org/2000/svg" xmlns:xlink="http://www.w3.org/1999/xlink" width="1864.5" height="356.374" viewBox="0 0 1864.5 356.374">
  <defs>
    <linearGradient id="linear-gradient" x1="0.951" x2="0.059" y2="1.261" gradientUnits="objectBoundingBox">
      <stop offset="0" stop-color="#cf87ff"/>
      <stop offset="1" stop-color="#a5dbff"/>
    </linearGradient>
  </defs>
  <g id="Group_11" data-name="Group 11" transform="translate(0.5 -1975.236)">
    <path id="Subtraction_4" data-name="Subtraction 4" d="M1101.456,267.237c-23.218-2.251-45.82-5.545-67.177-9.789-12.1-2.406-24.081-5.173-35.6-8.224-12.365-3.274-24.537-6.965-36.177-10.969-28.675-9.714-57.824-22.7-86.012-35.25l-.005,0-.009,0-.017-.008-.014-.006-.016-.007-.084-.038-.021-.009-.019-.008c-14.333-6.383-29.154-12.984-43.833-19.114-16.43-6.861-30.813-12.334-43.973-16.729a348.789,348.789,0,0,0-43.974-11.832c-7.48-1.458-14.877-2.573-21.986-3.316a212.672,212.672,0,0,0-21.987-1.173,186.442,186.442,0,0,0-26.049,1.8,217.76,217.76,0,0,0-34.547,7.978,344.774,344.774,0,0,0-34.547,13.022c-23.043,9.994-46.447,22.424-69.081,34.444l-.012.006-.02.01c-24.536,13.031-49.9,26.5-74.886,36.913a309.518,309.518,0,0,1-37.453,13.1c-6.384,1.746-12.685,3.185-18.727,4.277a179.7,179.7,0,0,1-18.726,2.4c-3.761.256-7.607.385-11.432.385h-.022c-5.854,0-11.924-.3-18.04-.9-5.844-.568-11.921-1.422-18.062-2.537a303.3,303.3,0,0,1-36.124-9.058c-24.069-7.492-48.532-17.644-72.189-27.461l-.036-.015-.022-.009-.013-.005-.014-.005-.009,0c-21.618-8.973-43.972-18.252-66-25.483a338.381,338.381,0,0,0-33.018-9.172A223.293,223.293,0,0,0,98.5,185.577c-4.654-.343-9.452-.518-14.26-.518A227.643,227.643,0,0,0,41.47,189.3,299.269,299.269,0,0,0,0,200.579V109.59c6.232-2.165,12.45-4.123,18.483-5.822A272.618,272.618,0,0,1,51.04,96.655a221.27,221.27,0,0,1,33.2-2.6c4.771,0,9.57.174,14.261.518a223.515,223.515,0,0,1,33.018,4.878,338.131,338.131,0,0,1,33.018,9.171c22.007,7.225,44.374,16.508,66.006,25.484l.006,0,.005,0,.018.008.007,0,.033.014c23.659,9.819,48.123,19.972,72.21,27.47a303.4,303.4,0,0,0,36.124,9.057c6.158,1.117,12.234,1.971,18.06,2.537,6.126.6,12.2.9,18.061.9,3.842,0,7.688-.13,11.432-.385a179.649,179.649,0,0,0,18.726-2.4c6.068-1.1,12.369-2.536,18.727-4.277a309.44,309.44,0,0,0,37.452-13.1c24.968-10.4,50.333-23.873,74.863-36.9l.007,0,.037-.02.006,0,.011-.006c22.635-12.02,46.04-24.449,69.076-34.44a344.539,344.539,0,0,1,34.547-13.022A217.9,217.9,0,0,1,674.5,61.561a186.473,186.473,0,0,1,26.049-1.8,212.54,212.54,0,0,1,21.987,1.173c7.123.744,14.521,1.86,21.988,3.315A349.454,349.454,0,0,1,788.5,76.078c13.146,4.39,27.529,9.862,43.971,16.728,14.6,6.1,29.387,12.681,43.689,19.049l.031.013.013.006.1.046.137.061.03.013c28.192,12.557,57.339,25.54,86.031,35.259,11.659,4.01,23.831,7.7,36.177,10.969,11.5,3.047,23.482,5.814,35.6,8.223,21.339,4.242,43.94,7.536,67.176,9.79,12.02-.946,23.958-2.166,35.484-3.625,12.876-1.631,25.616-3.61,37.864-5.881,13.45-2.493,26.724-5.415,39.452-8.683,13.758-3.531,27.3-7.579,40.244-12.03,11.513-3.9,23.93-8.606,37.961-14.387-10.486,16.553-16.118,33.966-16.74,51.758a99.752,99.752,0,0,0,8.22,42.7c-10.633,4.246-20.264,7.82-29.441,10.93-12.918,4.443-26.458,8.491-40.244,12.031-12.719,3.266-25.991,6.187-39.451,8.682-12.268,2.274-25.007,4.253-37.865,5.881C1125.45,265.067,1113.512,266.287,1101.456,267.237Z" transform="translate(-0.5 1915.478)" opacity="0.79" fill="url(#linear-gradient)"/>
    <path id="Union_3" data-name="Union 3" d="M344,107c0-44.183,43.429-80,97-80s97,35.817,97,80-43.429,80-97,80S344,151.183,344,107ZM0,103.5C0,80.028,19.476,61,43.5,61S87,80.028,87,103.5,67.524,146,43.5,146,0,126.972,0,103.5Zm145-42C145,27.535,176.564,0,215.5,0S286,27.535,286,61.5,254.436,123,215.5,123,145,95.466,145,61.5Z" transform="translate(1326 1996)" opacity="0.79" fill="url(#linear-gradient)"/>
    <path id="Union_4" data-name="Union 4" d="M255.762,79.554c0-32.85,32.289-59.48,72.119-59.48S400,46.7,400,79.554s-32.289,59.48-72.119,59.48S255.762,112.4,255.762,79.554ZM0,76.952c0-17.451,14.48-31.6,32.342-31.6S64.684,59.5,64.684,76.952s-14.48,31.6-32.342,31.6S0,94.4,0,76.952ZM107.807,45.725C107.807,20.472,131.274,0,160.223,0s52.417,20.472,52.417,45.725S189.172,91.45,160.223,91.45,107.807,70.978,107.807,45.725Z" transform="translate(434.217 2331.61) rotate(-169)" opacity="0.79" fill="url(#linear-gradient)"/>
  </g>
</svg>
