<svg xmlns="http://www.w3.org/2000/svg" xmlns:xlink="http://www.w3.org/1999/xlink" width="1897.5" height="313.718" viewBox="0 0 1897.5 313.718">
  <defs>
    <linearGradient id="linear-gradient" x1="1" y1="0.191" x2="-0.013" y2="0.733" gradientUnits="objectBoundingBox">
      <stop offset="0" stop-color="#cf87ff"/>
      <stop offset="1" stop-color="#85ccfc"/>
    </linearGradient>
  </defs>
  <g id="Group_11" data-name="Group 11" transform="translate(0.5 -1945)">
    <path id="Subtraction_4" data-name="Subtraction 4" d="M1101.456,216.237c-23.221-1.7-45.823-4.182-67.177-7.383-12.125-1.818-24.1-3.905-35.6-6.2-12.348-2.466-24.52-5.249-36.177-8.273-28.673-7.325-57.816-17.114-86-26.581l-.026-.009-.017-.006-.014,0-.016-.005-.084-.028-.021-.007-.035-.012c-14.339-4.816-29.166-9.8-43.817-14.41-16.436-5.177-30.82-9.3-43.973-12.617a442.356,442.356,0,0,0-43.974-8.924c-7.489-1.1-14.887-1.942-21.986-2.5-7.461-.587-14.859-.885-21.987-.885a246.061,246.061,0,0,0-26.049,1.36,279.231,279.231,0,0,0-34.547,6.016c-10.844,2.553-22.145,5.765-34.547,9.821-23.034,7.535-46.443,16.911-69.081,25.978l-.012,0-.02.008-.005,0-.005,0c-24.534,9.826-49.9,19.987-74.875,27.835a381.708,381.708,0,0,1-37.453,9.884c-6.387,1.318-12.688,2.4-18.727,3.225-6.359.866-12.659,1.476-18.726,1.812-3.753.192-7.6.29-11.432.29h-.022c-5.85,0-11.92-.228-18.04-.677-5.841-.428-11.918-1.071-18.062-1.913-11.355-1.555-23.171-3.789-36.124-6.831-24.083-5.653-48.543-13.309-72.2-20.714l-.028-.009-.021-.006-.013,0-.014,0-.012,0c-21.619-6.768-43.974-13.766-66-19.218-11.859-2.937-22.659-5.2-33.018-6.917A291.766,291.766,0,0,0,98.5,154.65c-4.65-.258-9.448-.39-14.261-.39a299.692,299.692,0,0,0-42.769,3.2A379.046,379.046,0,0,0,0,165.965V97.341c6.236-1.634,12.455-3.111,18.483-4.391,11.05-2.345,22-4.15,32.557-5.364a291.956,291.956,0,0,1,33.2-1.958c4.767,0,9.565.132,14.261.391A292.234,292.234,0,0,1,131.518,89.7c10.368,1.719,21.168,3.982,33.018,6.917,22.013,5.451,44.381,12.452,66.012,19.222l.006,0,.018.005.007,0c23.671,7.41,48.145,15.07,72.243,20.727,12.963,3.044,24.779,5.278,36.124,6.832,6.149.841,12.226,1.485,18.06,1.913,6.123.449,12.2.677,18.061.677,3.849,0,7.695-.1,11.432-.29,6.08-.337,12.38-.946,18.726-1.812,6.067-.827,12.368-1.912,18.727-3.226a381.8,381.8,0,0,0,37.452-9.883c24.97-7.846,50.334-18.006,74.863-27.831l.007,0,.037-.015.006,0,.011,0,.024-.01c22.631-9.063,46.034-18.436,69.052-25.965,12.4-4.056,23.7-7.268,34.547-9.821A279.38,279.38,0,0,1,674.5,61.118a246.184,246.184,0,0,1,26.049-1.36c7.134,0,14.532.3,21.987.885,7.111.56,14.508,1.4,21.988,2.5A443.056,443.056,0,0,1,788.5,72.067c13.151,3.313,27.534,7.439,43.971,12.616,14.589,4.594,29.378,9.561,43.681,14.365l.023.008.015.005.013,0,.1.034.137.046.03.01.008,0c28.178,9.466,57.315,19.254,86.023,26.59,11.669,3.026,23.841,5.809,36.177,8.273,11.5,2.3,23.474,4.383,35.6,6.2,21.346,3.2,43.947,5.685,67.176,7.384,12.039-.715,23.978-1.635,35.483-2.734,12.87-1.23,25.61-2.722,37.864-4.435,13.452-1.881,26.725-4.084,39.452-6.548,13.768-2.665,27.308-5.718,40.244-9.073,11.513-2.942,23.93-6.491,37.961-10.851-10.486,12.484-16.118,25.617-16.74,39.035-.5,10.8,2.266,21.63,8.22,32.2-10.636,3.2-20.266,5.9-29.441,8.243-12.916,3.351-26.456,6.4-40.244,9.074-12.722,2.463-26,4.666-39.451,6.548-12.262,1.714-25,3.206-37.865,4.434C1125.455,214.6,1113.516,215.521,1101.456,216.237Z" transform="translate(-0.5 1915.478)" opacity="0.79" fill="url(#linear-gradient)"/>
    <path id="Union_3" data-name="Union 3" d="M309,126c0-45.287,38.951-82,87-82s87,36.713,87,82-38.951,82-87,82S309,171.287,309,126ZM0,93.73C0,75.654,15,61,33.5,61S67,75.654,67,93.73s-15,32.73-33.5,32.73S0,111.806,0,93.73ZM145,55.5C145,24.848,172.087,0,205.5,0S266,24.848,266,55.5,238.913,111,205.5,111,145,86.152,145,55.5ZM504,43.73C504,25.654,519,11,537.5,11S571,25.654,571,43.73,556,76.46,537.5,76.46,504,61.806,504,43.73Zm-674,0C-170,25.654-155,11-136.5,11S-103,25.654-103,43.73-118,76.46-136.5,76.46-170,61.806-170,43.73Z" transform="translate(1326 1945)" opacity="0.62" fill="url(#linear-gradient)"/>
    <path id="Union_4" data-name="Union 4" d="M255.762,83.657c0-36.129,32.288-65.418,72.119-65.418S400,47.528,400,83.657s-32.288,65.418-72.119,65.418S255.762,119.786,255.762,83.657ZM0,69.917c0-15.856,14.48-28.71,32.342-28.71S64.684,54.06,64.684,69.917,50.2,98.626,32.342,98.626,0,85.772,0,69.917Zm107.807-22.67C107.807,21.153,131.274,0,160.223,0s52.416,21.153,52.416,47.246-23.467,47.246-52.416,47.246S107.807,73.34,107.807,47.246Z" transform="translate(437.349 2258.718) rotate(-178)" opacity="0.45" fill="url(#linear-gradient)"/>
  </g>
</svg>
