<svg xmlns="http://www.w3.org/2000/svg" xmlns:xlink="http://www.w3.org/1999/xlink" width="1896.499" height="208" viewBox="0 0 1896.499 208">
  <defs>
    <linearGradient id="linear-gradient" x1="-0.068" y1="-0.227" x2="1.029" y2="1.592" gradientUnits="objectBoundingBox">
      <stop offset="0" stop-color="#a5dbff"/>
      <stop offset="1" stop-color="#cf87ff"/>
    </linearGradient>
  </defs>
  <path id="intro-footer-bg" d="M1658,345.5c0-45.287,38.951-82,87-82s87,36.713,87,82-38.951,82-87,82S1658,390.787,1658,345.5ZM23.5,374.5A50.5,50.5,0,1,1,74,425,50.5,50.5,0,0,1,23.5,374.5Zm406-13.5c0-20.986,18.132-38,40.5-38s40.5,17.014,40.5,38-18.133,38-40.5,38S429.5,381.986,429.5,361ZM201,297.5a64,64,0,1,1,64,64A64,64,0,0,1,201,297.5Zm1148,15.729c0-18.076,15-32.729,33.5-32.729s33.5,14.654,33.5,32.729-15,32.73-33.5,32.73S1349,331.306,1349,313.229ZM1494,275c0-30.652,27.087-55.5,60.5-55.5S1615,244.348,1615,275s-27.087,55.5-60.5,55.5S1494,305.651,1494,275Zm359-11.77c0-18.077,15-32.73,33.5-32.73s33.5,14.654,33.5,32.73-15,32.729-33.5,32.729S1853,281.305,1853,263.23Zm-674,0c0-18.077,15-32.73,33.5-32.73s33.5,14.654,33.5,32.73-15,32.729-33.5,32.729S1179,281.305,1179,263.23Z" transform="translate(-23.5 -219.499)" opacity="0.78" fill="url(#linear-gradient)"/>
</svg>
