<svg xmlns="http://www.w3.org/2000/svg" xmlns:xlink="http://www.w3.org/1999/xlink" width="1637" height="208" viewBox="0 0 1637 208">
  <defs>
    <linearGradient id="linear-gradient" x1="1" y1="0.809" x2="-0.013" y2="0.267" gradientUnits="objectBoundingBox">
      <stop offset="0" stop-color="#cf87ff"/>
      <stop offset="1" stop-color="#85ccfc"/>
    </linearGradient>
  </defs>
  <path id="Union_5" data-name="Union 5" d="M1211,152.5c0-30.651,27.087-55.5,60.5-55.5s60.5,24.848,60.5,55.5-27.088,55.5-60.5,55.5S1211,183.152,1211,152.5ZM88,126c0-45.287,38.951-82,87-82s87,36.713,87,82-38.951,82-87,82S88,171.287,88,126Zm1482,38.27c0-18.076,15-32.729,33.5-32.729s33.5,14.654,33.5,32.729S1622,197,1603.5,197,1570,182.346,1570,164.27Zm-674,0c0-18.076,15-32.729,33.5-32.729S963,146.194,963,164.27,948,197,929.5,197,896,182.346,896,164.27ZM1375,82c0-45.287,38.952-82,87-82s87,36.713,87,82-38.95,82-87,82S1375,127.287,1375,82Zm-309,32.27c0-18.076,15-32.73,33.5-32.73s33.5,14.654,33.5,32.73S1118,147,1099.5,147,1066,132.346,1066,114.27ZM504,93.73C504,75.654,519,61,537.5,61S571,75.654,571,93.73s-15,32.73-33.5,32.73S504,111.806,504,93.73ZM305,55.5C305,24.848,332.087,0,365.5,0S426,24.848,426,55.5,398.912,111,365.5,111,305,86.152,305,55.5ZM674,43.73C674,25.654,689,11,707.5,11S741,25.654,741,43.73,726,76.46,707.5,76.46,674,61.806,674,43.73Zm-674,0C0,25.654,15,11,33.5,11S67,25.654,67,43.73,52,76.46,33.5,76.46,0,61.806,0,43.73Z" opacity="0.62" fill="url(#linear-gradient)"/>
</svg>
