<svg xmlns="http://www.w3.org/2000/svg" xmlns:xlink="http://www.w3.org/1999/xlink" width="1920" height="332.5" viewBox="0 0 1920 332.5">
  <defs>
    <linearGradient id="linear-gradient" x1="-0.068" y1="-0.227" x2="1.029" y2="1.592" gradientUnits="objectBoundingBox">
      <stop offset="0" stop-color="#a5dbff"/>
      <stop offset="1" stop-color="#cf87ff"/>
    </linearGradient>
  </defs>
  <path id="footer" d="M.5,332.5v-188H24.594a50.513,50.513,0,0,1,98.814,0H429.625q-.124-1.484-.124-3c0-20.986,18.132-38,40.5-38s40.5,17.014,40.5,38q0,1.514-.124,3H1660.222A77.714,77.714,0,0,1,1658,126c0-45.287,38.952-82,87-82s87,36.713,87,82a77.72,77.72,0,0,1-2.223,18.5H1920.5v188ZM201,78a64,64,0,1,1,64,64A64,64,0,0,1,201,78ZM1349,93.73C1349,75.654,1364,61,1382.5,61S1416,75.654,1416,93.73s-15,32.73-33.5,32.73S1349,111.806,1349,93.73ZM1494,55.5c0-30.652,27.087-55.5,60.5-55.5S1615,24.848,1615,55.5s-27.087,55.5-60.5,55.5S1494,86.152,1494,55.5Zm359-11.77c0-18.077,15-32.73,33.5-32.73S1920,25.654,1920,43.73s-15,32.729-33.5,32.729S1853,61.806,1853,43.73Zm-674,0c0-18.077,15-32.73,33.5-32.73S1246,25.654,1246,43.73s-15,32.729-33.5,32.729S1179,61.806,1179,43.73Z" transform="translate(-0.5)" opacity="0.78" fill="url(#linear-gradient)"/>
</svg>
