<svg xmlns="http://www.w3.org/2000/svg" xmlns:xlink="http://www.w3.org/1999/xlink" width="1933" height="1405" viewBox="0 0 1933 1405">
  <defs>
    <linearGradient id="linear-gradient" x1="-0.229" y1="-0.207" x2="0.967" y2="0.959" gradientUnits="objectBoundingBox">
      <stop offset="0" stop-color="#cf87ff"/>
      <stop offset="1" stop-color="#a5dbff"/>
    </linearGradient>
  </defs>
  <path id="gradient-background" d="M1528.5,1323a77.645,77.645,0,0,1,5.6-29h-68.926a64.634,64.634,0,0,1-80.342,0h-98.5c-1.679,16.541-15.962,29.46-33.334,29.46s-31.656-12.919-33.334-29.46h-500.2a32.025,32.025,0,0,1,5.037,17.27c0,18.076-15,32.729-33.5,32.729s-33.5-14.654-33.5-32.729a32.024,32.024,0,0,1,5.037-17.27H414.049c-7.479,38.121-42.936,67-85.548,67s-78.07-28.878-85.548-67H0V133H11.5V67.82c6.237-1.633,12.455-3.11,18.484-4.391,11.05-2.345,22-4.15,32.557-5.364a291.928,291.928,0,0,1,33.2-1.958c4.766,0,9.564.131,14.261.391a292.23,292.23,0,0,1,33.018,3.679c10.367,1.719,21.168,3.982,33.017,6.917,22.013,5.451,44.381,12.452,66.012,19.222l.006,0,.018.005.007,0c23.671,7.41,48.145,15.071,72.243,20.727,12.962,3.044,24.779,5.279,36.123,6.832,6.15.841,12.227,1.485,18.061,1.913,6.123.449,12.2.677,18.06.677,3.849,0,7.7-.1,11.433-.29,6.079-.337,12.379-.946,18.726-1.812,6.067-.827,12.367-1.912,18.727-3.226a381.886,381.886,0,0,0,37.452-9.883c24.97-7.846,50.334-18.005,74.864-27.831l.006,0,.037-.015.006,0,.012,0,.023-.01c22.631-9.063,46.034-18.436,69.052-25.965,12.4-4.055,23.7-7.268,34.547-9.821A279.39,279.39,0,0,1,686,31.6a246.111,246.111,0,0,1,26.049-1.36c7.133,0,14.531.3,21.987.885,7.11.56,14.508,1.4,21.987,2.5A443.032,443.032,0,0,1,800,42.545c13.151,3.313,27.534,7.439,43.971,12.616,14.588,4.594,29.378,9.562,43.681,14.365l.023.007.014.005.013,0,.1.034.137.046.03.01.008,0C916.154,79.1,945.291,88.89,974,96.225c11.669,3.026,23.84,5.81,36.177,8.273,11.5,2.3,23.474,4.384,35.6,6.2,21.346,3.2,43.948,5.684,67.177,7.384,12.039-.715,23.978-1.634,35.483-2.734,12.871-1.229,25.61-2.722,37.864-4.435,13.452-1.881,26.725-4.084,39.452-6.548,13.767-2.665,27.308-5.718,40.244-9.073,11.514-2.942,23.93-6.491,37.961-10.851-10.486,12.485-16.118,25.618-16.74,39.036a54,54,0,0,0,.4,9.523h359.688q-.31-3.461-.313-7c0-45.287,38.951-82,87-82s87,36.713,87,82q0,3.537-.313,7H1933V1294H1696.9a77.648,77.648,0,0,1,5.6,29c0,45.287-38.951,82-87,82S1528.5,1368.287,1528.5,1323ZM872.251,133c-9.383-3.126-18.87-6.242-28.284-9.206-16.436-5.177-30.82-9.3-43.972-12.617a442.628,442.628,0,0,0-43.974-8.924c-7.49-1.1-14.887-1.941-21.986-2.5-7.462-.587-14.859-.885-21.987-.885A245.986,245.986,0,0,0,686,100.228a279.244,279.244,0,0,0-34.547,6.017c-10.845,2.552-22.145,5.765-34.548,9.821-15.4,5.037-30.96,10.9-46.35,16.935Zm-707.778,0c-7.468-1.664-14.56-3.049-21.455-4.193A291.771,291.771,0,0,0,110,125.128c-4.65-.258-9.448-.39-14.26-.39a299.666,299.666,0,0,0-42.769,3.2c-8.889,1.288-18.03,2.984-27.311,5.062ZM458.5,1349.5c0-30.651,27.088-55.5,60.5-55.5s60.5,24.848,60.5,55.5S552.413,1405,519,1405,458.5,1380.152,458.5,1349.5Zm369,11.77c0-18.076,15-32.729,33.5-32.729s33.5,14.654,33.5,32.729S879.5,1394,861,1394,827.5,1379.346,827.5,1361.27Zm-674,0c0-18.076,15-32.729,33.5-32.729s33.5,14.654,33.5,32.729S205.5,1394,187,1394,153.5,1379.346,153.5,1361.27ZM1338,93.73C1338,75.654,1353,61,1371.5,61S1405,75.654,1405,93.73s-15,32.73-33.5,32.73S1338,111.806,1338,93.73ZM1483,55.5c0-30.652,27.087-55.5,60.5-55.5S1604,24.848,1604,55.5s-27.087,55.5-60.5,55.5S1483,86.152,1483,55.5Zm359-11.77c0-18.077,15-32.73,33.5-32.73S1909,25.654,1909,43.73s-15,32.729-33.5,32.729S1842,61.806,1842,43.73Zm-674,0c0-18.077,15-32.73,33.5-32.73S1235,25.654,1235,43.73s-15,32.729-33.5,32.729S1168,61.806,1168,43.73Z" transform="translate(0 0)" fill="url(#linear-gradient)"/>
</svg>
