<svg id="instructions-illustration" xmlns="http://www.w3.org/2000/svg" width="814.102" height="785" viewBox="0 0 814.102 785">
  <path id="Path_135" data-name="Path 135" d="M663.893,822.889l-229.215.759c-60.81-18.272-110.632-81.736-110.947-176.887a269.459,269.459,0,0,1,3.238-42.812l184.622-41.478,142.424-31.995A283.261,283.261,0,0,1,683.271,560.9l-136.19,71.913-64.247,33.926,72.194-24.907,149.843-51.694a363.372,363.372,0,0,1,24.916,44.672L684.576,681.53l51.145-33.482q.328.769.653,1.541C768.787,726.539,728.571,822.675,663.893,822.889Z" transform="translate(-192.949 -57.5)" fill="#f0f0f0"/>
  <path id="Path_136" data-name="Path 136" d="M626.224,508.94c-34.663,9.955-77.279,22.533-121.1,35.607-63.351,18.908-129.208,38.861-177.155,53.447l.031-.171a65.9,65.9,0,0,1,12.16-28.224c35.517-46.179,80.743-78.439,131.077-90.419h0a188.907,188.907,0,0,1,43.2-5.154C554.494,473.893,592.426,486.453,626.224,508.94Z" transform="translate(-192.949 -57.5)" fill="#f0daff"/>
  <ellipse id="Ellipse_46" data-name="Ellipse 46" cx="156" cy="22.5" rx="156" ry="22.5" transform="translate(128.729 740)" fill="#3f3d56"/>
  <path id="Path_137" data-name="Path 137" d="M229.229,552.5v35l25,3,15-19-12-24Z" fill="#fbbebe"/>
  <path id="Path_138" data-name="Path 138" d="M324.229,696.5l13,35,24-8-18-29Z" fill="#fbbebe"/>
  <path id="Path_139" data-name="Path 139" d="M487.178,456s-130-13-126,23,61,139,61,139l38-7s-27-42-25-56-6-33-6-33l19,3,11,17,23,118,35,106,26-7s-14-44-10-58-19-68-19-68l16-94s31-9,22-40S487.178,456,487.178,456Z" transform="translate(-192.949 -57.5)" fill="#2f2e41"/>
  <path id="Path_140" data-name="Path 140" d="M433.178,634s-15-12-14-7a35.882,35.882,0,0,1,0,11l-14,31s-34,31-3,32,47-31,47-31,43-32,38-37-31.242-16.484-31.242-16.484S447.178,641,433.178,634Z" transform="translate(-192.949 -57.5)" fill="#2f2e41"/>
  <path id="Path_141" data-name="Path 141" d="M529.178,773s-14-13-15-7-2,14-2,14l-21,20s-30,29-4,30a50.272,50.272,0,0,0,40-17s38-8,36-14-12.028-29.212-16.514-30.106S541.178,781,529.178,773Z" transform="translate(-192.949 -57.5)" fill="#2f2e41"/>
  <circle id="Ellipse_47" data-name="Ellipse 47" cx="31" cy="31" r="31" transform="translate(257.229 192.5)" fill="#fbbebe"/>
  <path id="Path_142" data-name="Path 142" d="M467.178,302s13,35,12,38,41-25,41-25-18-4-18-20Z" transform="translate(-192.949 -57.5)" fill="#fbbebe"/>
  <path id="Path_143" data-name="Path 143" d="M581.178,353s18,18,21,24,71,82,71,82,45,53,27,54-41-42-41-42-64-47-67-58l-37-38Z" transform="translate(-192.949 -57.5)" fill="#fbbebe"/>
  <path id="Path_144" data-name="Path 144" d="M487.178,332h-11l-15,24s-15,13-4,40,20,61,20,61,32,4,38,14,40,42,40,42,6-21,4-52,0-78,0-78l-2-62s-38.623-8.952-41.312-7.476S487.178,332,487.178,332Z" transform="translate(-192.949 -57.5)" fill="#575a89"/>
  <path id="Path_145" data-name="Path 145" d="M542.178,324l15-3s16,10,31,39c0,0-32,21-35,20S542.178,324,542.178,324Z" transform="translate(-192.949 -57.5)" fill="#575a89"/>
  <path id="Path_146" data-name="Path 146" d="M450.178,392s-23,37-16,51,16,13,16,13,17-3,17-17,7-15,7-15,44-36,27-36-40,25-40,25l-1-23Z" transform="translate(-192.949 -57.5)" fill="#fbbebe"/>
  <path id="Path_147" data-name="Path 147" d="M465.178,355s-15,4-18,20-2,24-2,24l20-2Z" transform="translate(-192.949 -57.5)" fill="#575a89"/>
  <path id="Path_148" data-name="Path 148" d="M437.178,435s16-21,18-18Z" transform="translate(-192.949 -57.5)" opacity="0.1"/>
  <path id="Path_149" data-name="Path 149" d="M496.926,243.471s-16.44-16.426-32.267-5.4-23.2,21.533-21.431,28.666,6.7,16.991,6.7,16.991-3.293-14.788,10.013-16.237,31.5-10.755,31.5-10.755L504.6,283.027s1.6-6.213,6.531-4.572S511.355,245.068,496.926,243.471Z" transform="translate(-192.949 -57.5)" fill="#2f2e41"/>
  <path id="Path_150" data-name="Path 150" d="M384.43,793.394c0,14.581-8.668,19.672-19.361,19.672q-.372,0-.742-.008c-.5-.011-.986-.034-1.471-.067-9.65-.683-17.148-6.036-17.148-19.6,0-14.034,17.933-31.742,19.28-33.052l0,0,.078-.076S384.43,778.814,384.43,793.394Z" transform="translate(-192.949 -57.5)" fill="silver"/>
  <path id="Path_151" data-name="Path 151" d="M364.365,810.836l7.081-9.894-7.1,10.981-.019,1.136c-.5-.011-.986-.034-1.471-.067l.763-14.588-.006-.113.013-.021.072-1.378-7.116-11.008,7.139,9.975.017.293.577-11.022-6.093-11.375,6.167,9.44.6-22.851,0-.078v.076l-.1,18.019,6.065-7.144-6.09,8.7-.16,9.868,5.663-9.471-5.687,10.923-.09,5.486,8.222-13.182-8.253,15.1Z" transform="translate(-192.949 -57.5)" fill="#3f3d56"/>
  <path id="Path_152" data-name="Path 152" d="M824.256,277.166S818.1,296.3,808.5,323.782c-3.1,8.928-6.582,18.729-10.33,29.046-5.223,14.365-10.974,29.732-17,45.1-3.706,9.458-7.512,18.9-11.361,28.13-20.69,49.463-42.724,92.316-57.161,92.917-32.437,1.345-101.917-215.681-109.5-239.661-.444-1.4-.672-2.146-.672-2.146Z" transform="translate(-192.949 -57.5)" fill="#3f3d56"/>
  <path id="Path_153" data-name="Path 153" d="M808.5,323.781c-3.1,8.928-6.582,18.729-10.33,29.046l-85.921-75.661h43.311Z" transform="translate(-192.949 -57.5)" opacity="0.1"/>
  <path id="Path_154" data-name="Path 154" d="M781.174,397.926c-3.706,9.458-7.512,18.9-11.361,28.13L603.152,279.312c-.444-1.4-.672-2.146-.672-2.146H644.03Z" transform="translate(-192.949 -57.5)" opacity="0.1"/>
  <path id="Path_155" data-name="Path 155" d="M717.213,84.951C707.046,93,690.97,89.959,681.2,98.489c-6.683,5.834-8.466,15.811-6.643,24.493s6.67,16.386,11.545,23.8c3.365,5.115,6.855,10.271,11.583,14.162,6.61,5.439,15.094,7.972,23.409,10.005a291.539,291.539,0,0,0,55.221,8c8.3.4,17.708,0,23.3-6.149,3.258-3.581,4.568-8.488,5.523-13.233,1.493-7.424,2.323-15.416-.763-22.331-2.537-5.684-7.419-9.944-12.362-13.727-15.5-11.864-33.765-21.686-43.228-38.762-3.761-6.788-6.081-14.653-11.782-19.919-7.431-6.864-23.965-9.671-32.715-5.086C705.642,62.827,723.308,80.123,717.213,84.951Z" transform="translate(-192.949 -57.5)" fill="#cf87ff"/>
  <path id="Path_156" data-name="Path 156" d="M631.779,164.994c-3.014,10.453-5.791,21.513-3.253,32.092,3.347,13.948,15.576,24.393,28.99,29.471s28.044,5.67,42.378,6.205l75.046,2.8c9.431.352,19.044.739,27.908,3.981,7.306,2.672,15.989,7.072,22.079,2.233,2.762-2.195,4-5.748,4.984-9.138,3.19-11.028,4.974-23.139.685-33.787-4.915-12.2-17.036-20.221-29.621-24.054s-25.913-4.206-38.989-5.653a235.013,235.013,0,0,1-39.2-7.76c-10.721-3.09-21.582-7.167-29.512-15.015-4.289-4.245-7.537-9.423-11.58-13.9C658.531,106.8,637.475,145.241,631.779,164.994Z" transform="translate(-192.949 -57.5)" fill="#a5dbff"/>
  <path id="Path_157" data-name="Path 157" d="M615.288,213.017a46.446,46.446,0,0,0-9.689,78.925c11.427,8.968,26.381,12.087,40.87,13.131,14.148,1.019,28.356.318,42.523-.384l125.346-6.208c7.347-.364,15.663-1.21,20.148-7.04,3.347-4.352,3.544-10.354,2.745-15.786-2.875-19.54-17.629-36.838-36.47-42.76-7.106-2.233-14.587-2.94-22-3.634l-53.732-5.028c-7.236-.677-14.514-1.362-21.527-3.268-21.249-5.776-40.235-22.639-62.113-20.143-14.842,1.694-27.062,12.085-37.844,22.424" transform="translate(-192.949 -57.5)" fill="#cf87ff"/>
  <path id="Path_158" data-name="Path 158" d="M685.467,128.361S703,160.024,792.962,172.809" transform="translate(-192.949 -57.5)" opacity="0.1"/>
  <path id="Path_159" data-name="Path 159" d="M635.707,211.293s32.59,32.964,167.086,32.964" transform="translate(-192.949 -57.5)" opacity="0.1"/>
  <ellipse id="Ellipse_48" data-name="Ellipse 48" cx="8.585" cy="2.862" rx="8.585" ry="2.862" transform="translate(509.687 49.399)" fill="#3f3d56"/>
  <ellipse id="Ellipse_49" data-name="Ellipse 49" cx="8.585" cy="2.862" rx="8.585" ry="2.862" transform="translate(538.304 67.999)" fill="#3f3d56"/>
  <ellipse id="Ellipse_50" data-name="Ellipse 50" cx="8.585" cy="2.862" rx="8.585" ry="2.862" transform="translate(571.212 88.031)" fill="#3f3d56"/>
  <ellipse id="Ellipse_51" data-name="Ellipse 51" cx="8.585" cy="2.862" rx="8.585" ry="2.862" transform="translate(456.747 96.616)" fill="#3f3d56"/>
  <ellipse id="Ellipse_52" data-name="Ellipse 52" cx="8.585" cy="2.862" rx="8.585" ry="2.862" transform="translate(529.719 123.801)" fill="#3f3d56"/>
  <ellipse id="Ellipse_53" data-name="Ellipse 53" cx="8.585" cy="2.862" rx="8.585" ry="2.862" transform="translate(426.7 179.602)" fill="#3f3d56"/>
  <ellipse id="Ellipse_54" data-name="Ellipse 54" cx="8.585" cy="2.862" rx="8.585" ry="2.862" transform="translate(481.071 126.662)" fill="#3f3d56"/>
  <ellipse id="Ellipse_55" data-name="Ellipse 55" cx="8.585" cy="2.862" rx="8.585" ry="2.862" transform="translate(448.162 201.065)" fill="#3f3d56"/>
  <ellipse id="Ellipse_56" data-name="Ellipse 56" cx="8.585" cy="2.862" rx="8.585" ry="2.862" transform="translate(503.964 188.187)" fill="#3f3d56"/>
  <ellipse id="Ellipse_57" data-name="Ellipse 57" cx="9.3" cy="19.316" rx="9.3" ry="19.316" transform="translate(536.873 223.958)" fill="#cf87ff"/>
  <ellipse id="Ellipse_58" data-name="Ellipse 58" cx="9.3" cy="19.316" rx="9.3" ry="19.316" transform="translate(548.32 231.112)" fill="#cf87ff"/>
  <path id="Path_160" data-name="Path 160" d="M731.486,494.182c.077-.382,2.005-9.517,12.095-22.844,9.257-12.227,27.465-30.42,61.641-47.659,64.745-32.658,79.233-94.014,79.371-94.631l1.73.39c-.035.156-3.659,15.865-15.322,35.414a158.741,158.741,0,0,1-64.981,60.41c-64.635,32.6-72.722,68.908-72.8,69.271Z" transform="translate(-192.949 -57.5)" fill="#3f3d56"/>
  <circle id="Ellipse_59" data-name="Ellipse 59" cx="11.525" cy="11.525" r="11.525" transform="translate(683.431 241.934)" fill="#6c63ff"/>
  <circle id="Ellipse_60" data-name="Ellipse 60" cx="11.525" cy="11.525" r="11.525" transform="translate(681.15 297.851)" fill="#3f3d56"/>
  <circle id="Ellipse_61" data-name="Ellipse 61" cx="11.525" cy="11.525" r="11.525" transform="translate(643.66 301.775)" fill="#6c63ff"/>
  <circle id="Ellipse_62" data-name="Ellipse 62" cx="11.525" cy="11.525" r="11.525" transform="translate(649.487 339.82)" fill="#6c63ff"/>
  <circle id="Ellipse_63" data-name="Ellipse 63" cx="11.525" cy="11.525" r="11.525" transform="translate(595.569 340.601)" fill="#3f3d56"/>
  <path id="Path_161" data-name="Path 161" d="M736.3,499.227s10.838-28.638,50.657-20.731Z" transform="translate(-192.949 -57.5)" fill="#3f3d56"/>
  <path id="Path_162" data-name="Path 162" d="M726.26,489.213s16.666-25.687-13.277-53.1Z" transform="translate(-192.949 -57.5)" fill="#3f3d56"/>
  <path id="Path_163" data-name="Path 163" d="M806.157,445.349l-19.078-7.529L768,430.292l16.059-12.758,16.059-12.759,3.02,20.287Z" fill="#f2f2f2"/>
  <path id="Path_164" data-name="Path 164" d="M38.157,315.349,19.079,307.82,0,300.292l16.059-12.758,16.059-12.759,3.02,20.287Z" fill="#f2f2f2"/>
  <path id="Path_165" data-name="Path 165" d="M711.157,556.349l-19.078-7.529L673,541.292l16.059-12.758,16.059-12.759,3.02,20.287Z" fill="#f2f2f2"/>
  <path id="Path_166" data-name="Path 166" d="M814.1,627.1l-18.019,9.8-18.018,9.8.524-20.5.524-20.5L796.608,616.4Z" fill="#f2f2f2"/>
  <path id="Path_167" data-name="Path 167" d="M135.1,235.1l-18.019,9.8-18.018,9.8.524-20.5.524-20.5,17.5,10.706Z" fill="#f2f2f2"/>
</svg>
