<svg xmlns="http://www.w3.org/2000/svg" xmlns:xlink="http://www.w3.org/1999/xlink" width="1921" height="157.412" viewBox="0 0 1921 157.412">
  <defs>
    <linearGradient id="linear-gradient" x1="-0.229" y1="-0.207" x2="0.967" y2="0.959" gradientUnits="objectBoundingBox">
      <stop offset="0" stop-color="#cf87ff"/>
      <stop offset="1" stop-color="#a5dbff"/>
    </linearGradient>
  </defs>
  <path id="Subtraction_3" data-name="Subtraction 3" d="M1101.456,157.412c-23.223-1.7-45.825-4.183-67.177-7.383-12.111-1.816-24.089-3.9-35.6-6.2-12.358-2.468-24.529-5.251-36.177-8.273-28.68-7.327-57.833-17.12-86.026-26.59l-.017-.006-.014,0-.016-.005-.084-.028-.02-.007c-14.364-4.825-29.217-9.813-43.853-14.422-16.432-5.176-30.816-9.3-43.973-12.617a442.38,442.38,0,0,0-43.974-8.924c-7.486-1.1-14.884-1.942-21.986-2.5-7.456-.587-14.854-.884-21.987-.884a246.283,246.283,0,0,0-26.049,1.36,279.185,279.185,0,0,0-34.546,6.017C629.1,79.5,617.8,82.708,605.406,86.762c-23.031,7.534-46.442,16.91-69.082,25.977l-.011,0-.019.008c-24.538,9.828-49.911,19.991-74.887,27.84a381.625,381.625,0,0,1-37.454,9.884c-6.383,1.317-12.684,2.4-18.727,3.225-6.361.867-12.661,1.476-18.726,1.811-3.76.193-7.606.291-11.432.291h-.023c-5.849,0-11.919-.228-18.04-.677-5.839-.428-11.916-1.072-18.062-1.913-11.348-1.553-23.164-3.788-36.124-6.831-24.072-5.651-48.537-13.308-72.2-20.714l-.028-.009-.022-.007-.014,0-.014,0c-21.63-6.771-44-13.772-66.008-19.222-11.859-2.936-22.659-5.2-33.018-6.917A291.875,291.875,0,0,0,98.5,95.825c-4.659-.259-9.457-.39-14.26-.39a299.648,299.648,0,0,0-42.769,3.2A379.067,379.067,0,0,0,0,107.139V38.516c6.238-1.634,12.456-3.111,18.483-4.391,11.05-2.345,22-4.15,32.557-5.364a292.092,292.092,0,0,1,33.2-1.958c4.766,0,9.564.131,14.261.39a292.067,292.067,0,0,1,33.018,3.679c10.371,1.72,21.172,3.982,33.018,6.917,22.009,5.45,44.379,12.451,66.012,19.222l.005,0,.018.006.007,0c23.672,7.41,48.145,15.071,72.243,20.728,12.965,3.043,24.781,5.278,36.125,6.831,6.15.842,12.226,1.486,18.06,1.913,6.125.449,12.2.677,18.061.677,3.842,0,7.688-.1,11.432-.29,6.076-.336,12.377-.946,18.726-1.811,6.068-.827,12.369-1.913,18.727-3.226a381.824,381.824,0,0,0,37.453-9.884c24.959-7.842,50.329-18,74.863-27.83l.007,0,.037-.015.006,0,.011,0c22.64-9.067,46.05-18.442,69.076-25.975C617.8,14.076,629.1,10.864,639.952,8.31A279.334,279.334,0,0,1,674.5,2.293,246.322,246.322,0,0,1,700.548.933c7.137,0,14.535.3,21.987.885,7.122.561,14.519,1.4,21.988,2.5A443.085,443.085,0,0,1,788.5,13.241c13.148,3.312,27.531,7.439,43.971,12.616,14.6,4.6,29.4,9.57,43.719,14.377l.014,0,.1.034.137.046.03.01C904.658,49.8,933.806,59.591,962.5,66.922c11.664,3.025,23.836,5.808,36.177,8.273,11.5,2.3,23.483,4.385,35.6,6.2,21.339,3.2,43.941,5.684,67.176,7.384,12.037-.715,23.975-1.635,35.484-2.734,12.868-1.229,25.608-2.722,37.864-4.435,13.452-1.881,26.725-4.084,39.451-6.549,13.767-2.665,27.307-5.718,40.245-9.073,28.7-7.332,57.855-17.127,86.055-26.6l.03-.011.02-.006.01,0c14.387-4.832,29.264-9.829,43.918-14.444,16.437-5.176,30.821-9.3,43.973-12.616a442.606,442.606,0,0,1,43.974-8.924c7.471-1.1,14.868-1.94,21.986-2.5C1501.931.3,1509.328,0,1516.451,0A246.3,246.3,0,0,1,1542.5,1.36a279.29,279.29,0,0,1,34.547,6.017c10.84,2.55,22.141,5.763,34.547,9.82,23.015,7.528,46.416,16.9,69.047,25.964l.008,0,.016.007.023.009.006,0,.033.013.032.013c24.525,9.822,49.885,19.978,74.835,27.818a381.7,381.7,0,0,0,37.452,9.884c6.382,1.317,12.683,2.4,18.726,3.225,6.342.865,12.642,1.474,18.726,1.812,3.741.193,7.587.291,11.433.291,5.866,0,11.943-.228,18.061-.678,5.847-.429,11.925-1.073,18.062-1.913,11.344-1.554,23.16-3.788,36.123-6.831,2.222-.522,4.517-1.077,6.821-1.651v68.629c-2.316.577-4.612,1.132-6.825,1.651-12.971,3.045-24.787,5.279-36.122,6.831-6.143.842-12.219,1.486-18.06,1.915-6.131.449-12.207.677-18.06.678-3.845,0-7.691-.1-11.433-.291-6.068-.335-12.369-.945-18.726-1.811-6.055-.825-12.356-1.91-18.726-3.225a381.774,381.774,0,0,1-37.453-9.884c-24.963-7.844-50.335-18.006-74.872-27.833l-.025-.01-.009,0-.01,0-.006,0-.007,0c-22.634-9.066-46.039-18.44-69.071-25.974-12.395-4.054-23.695-7.267-34.546-9.821a279.3,279.3,0,0,0-34.548-6.017,246.309,246.309,0,0,0-26.049-1.36c-7.129,0-14.527.3-21.987.884-7.1.558-14.494,1.4-21.987,2.5A442.792,442.792,0,0,0,1428.5,80.94c-13.15,3.313-27.533,7.44-43.972,12.616-14.7,4.629-29.564,9.623-43.939,14.452l-.019.006-.014,0c-28.2,9.472-57.354,19.267-86.061,26.6-12.916,3.351-26.456,6.4-40.244,9.074-12.716,2.463-25.99,4.666-39.451,6.548-12.259,1.714-25,3.206-37.865,4.435C1125.445,155.776,1113.507,156.7,1101.456,157.412Z" fill="url(#linear-gradient)"/>
</svg>
