<svg xmlns="http://www.w3.org/2000/svg" xmlns:xlink="http://www.w3.org/1999/xlink" width="1637" height="208" viewBox="0 0 1637 208">
  <defs>
    <linearGradient id="linear-gradient" x1="-0.229" y1="-0.207" x2="0.967" y2="0.959" gradientUnits="objectBoundingBox">
      <stop offset="0" stop-color="#cf87ff"/>
      <stop offset="1" stop-color="#a5dbff"/>
    </linearGradient>
  </defs>
  <path id="Union_8" data-name="Union 8" d="M1375,126c0-45.287,38.952-82,87-82s87,36.713,87,82-38.95,82-87,82S1375,171.287,1375,126ZM305,152.5c0-30.651,27.087-55.5,60.5-55.5S426,121.848,426,152.5,398.912,208,365.5,208,305,183.152,305,152.5Zm369,11.77c0-18.076,15-32.729,33.5-32.729S741,146.194,741,164.27,726,197,707.5,197,674,182.346,674,164.27Zm-674,0c0-18.076,15-32.729,33.5-32.729S67,146.194,67,164.27,52,197,33.5,197,0,182.346,0,164.27ZM88,82C88,36.713,126.95,0,175,0s87,36.713,87,82-38.951,82-87,82S88,127.287,88,82Zm416,32.27c0-18.076,15-32.73,33.5-32.73S571,96.194,571,114.27,556,147,537.5,147,504,132.346,504,114.27ZM1066,93.73C1066,75.654,1081,61,1099.5,61S1133,75.654,1133,93.73s-15,32.73-33.5,32.73S1066,111.806,1066,93.73ZM1211,55.5c0-30.652,27.087-55.5,60.5-55.5S1332,24.848,1332,55.5s-27.088,55.5-60.5,55.5S1211,86.152,1211,55.5Zm359-11.77c0-18.077,15-32.73,33.5-32.73S1637,25.654,1637,43.73s-15,32.729-33.5,32.729S1570,61.806,1570,43.73Zm-674,0C896,25.654,911,11,929.5,11S963,25.654,963,43.73,948,76.46,929.5,76.46,896,61.806,896,43.73Z" transform="translate(1637 208) rotate(180)" fill="url(#linear-gradient)"/>
</svg>
