<svg xmlns="http://www.w3.org/2000/svg" xmlns:xlink="http://www.w3.org/1999/xlink" width="1921.5" height="1405" viewBox="0 0 1921.5 1405">
  <defs>
    <linearGradient id="linear-gradient" x1="-0.229" y1="-0.207" x2="0.967" y2="0.959" gradientUnits="objectBoundingBox">
      <stop offset="0" stop-color="#cf87ff"/>
      <stop offset="1" stop-color="#a5dbff"/>
    </linearGradient>
  </defs>
  <path id="gradient" d="M1671.5,1418a92.8,92.8,0,0,1-17.534-1.666,90.484,90.484,0,0,1-16.331-4.778,88.789,88.789,0,0,1-14.778-7.56,86.717,86.717,0,0,1-12.876-10.013,83.845,83.845,0,0,1-10.623-12.136,80.615,80.615,0,0,1-8.021-13.928A77.924,77.924,0,0,1,1590.1,1307h-68.926a61.472,61.472,0,0,1-18.31,10.266,65.859,65.859,0,0,1-43.721,0A61.47,61.47,0,0,1,1440.83,1307h-98.495a32.378,32.378,0,0,1-10.782,20.933,34.086,34.086,0,0,1-45.1,0A32.378,32.378,0,0,1,1275.666,1307h-500.2a32.132,32.132,0,0,1,2.4,30.01,32.583,32.583,0,0,1-7.18,10.4,33.445,33.445,0,0,1-10.648,7.014,34.34,34.34,0,0,1-26.08,0,33.444,33.444,0,0,1-10.648-7.014,32.588,32.588,0,0,1-7.179-10.4,32.134,32.134,0,0,1,2.4-30.01H470.048a78.459,78.459,0,0,1-10.53,26.551,83.612,83.612,0,0,1-19.07,21.244,88.051,88.051,0,0,1-25.657,14.1,92.377,92.377,0,0,1-60.584,0,88.046,88.046,0,0,1-25.657-14.1,83.612,83.612,0,0,1-19.069-21.244A78.457,78.457,0,0,1,298.953,1307H67.5V80.819c6.239-1.634,12.457-3.111,18.483-4.391,11.048-2.345,22-4.15,32.557-5.364a291.883,291.883,0,0,1,33.2-1.959c4.767,0,9.565.131,14.261.391a292.23,292.23,0,0,1,33.018,3.679c10.367,1.719,21.167,3.981,33.017,6.916,22,5.447,44.349,12.443,65.966,19.207l.047.015.006,0,.018.005.007,0,.006,0c23.668,7.409,48.142,15.07,72.237,20.725,12.961,3.044,24.777,5.278,36.123,6.832,6.141.84,12.218,1.484,18.061,1.913,6.119.449,12.2.677,18.06.677,3.857,0,7.7-.1,11.433-.29,6.079-.337,12.38-.946,18.726-1.812,6.063-.827,12.364-1.912,18.727-3.226a381.866,381.866,0,0,0,37.452-9.883c24.973-7.847,50.333-18.005,74.858-27.828l.005,0,.006,0,.037-.015.006,0,.012,0,.024-.01.03-.012C626.5,77.327,649.895,67.96,672.9,60.433c12.408-4.058,23.709-7.27,34.546-9.821A279.415,279.415,0,0,1,742,44.6a246.1,246.1,0,0,1,26.049-1.36c7.132,0,14.53.3,21.987.885,7.112.56,14.51,1.4,21.987,2.5A443.03,443.03,0,0,1,856,55.544c13.157,3.315,27.54,7.442,43.971,12.616,14.575,4.59,29.351,9.553,43.64,14.351l.041.014.023.007.015.005.013,0,.1.034.137.046.03.01.008,0c28.18,9.467,57.315,19.255,86.023,26.59,11.675,3.027,23.846,5.81,36.177,8.273,11.5,2.3,23.482,4.385,35.6,6.2,21.342,3.2,43.944,5.684,67.177,7.384,12.046-.715,23.984-1.635,35.483-2.734,12.875-1.23,25.614-2.722,37.864-4.435,13.449-1.88,26.722-4.084,39.453-6.548,13.767-2.665,27.307-5.718,40.243-9.073,11.524-2.945,23.941-6.494,37.961-10.851-10.485,12.484-16.118,25.617-16.74,39.036a54.242,54.242,0,0,0,.4,9.523h359.689c-.208-2.321-.313-4.677-.313-7a77.714,77.714,0,0,1,6.837-31.918,80.622,80.622,0,0,1,8.021-13.929,83.835,83.835,0,0,1,10.623-12.136A86.737,86.737,0,0,1,1741.356,71a88.788,88.788,0,0,1,14.778-7.56,90.488,90.488,0,0,1,16.331-4.778,93.1,93.1,0,0,1,35.068,0,90.488,90.488,0,0,1,16.331,4.778A88.784,88.784,0,0,1,1838.642,71a86.737,86.737,0,0,1,12.876,10.013,83.843,83.843,0,0,1,10.623,12.136,80.621,80.621,0,0,1,8.021,13.929A77.709,77.709,0,0,1,1877,139c0,2.336-.1,4.691-.312,7H1989V1307H1752.9a77.853,77.853,0,0,1-1.24,60.918,80.616,80.616,0,0,1-8.021,13.928,83.844,83.844,0,0,1-10.623,12.136A86.731,86.731,0,0,1,1720.144,1404a88.793,88.793,0,0,1-14.778,7.56,90.5,90.5,0,0,1-16.331,4.778A92.8,92.8,0,0,1,1671.5,1418ZM768.048,111.867A246.006,246.006,0,0,0,742,113.227a279.238,279.238,0,0,0-34.547,6.017c-10.835,2.55-22.136,5.762-34.548,9.821-13.281,4.345-27.576,9.568-46.35,16.935h301.7c-11.153-3.715-20.14-6.641-28.283-9.206-16.442-5.179-30.825-9.305-43.972-12.617a442.71,442.71,0,0,0-43.974-8.925c-7.493-1.1-14.89-1.941-21.986-2.5C782.57,112.165,775.172,111.867,768.048,111.867Zm-616.309,25.87a299.656,299.656,0,0,0-42.769,3.2c-8.852,1.283-18.04,2.987-27.31,5.062H220.473c-7.482-1.667-14.5-3.039-21.455-4.193A291.8,291.8,0,0,0,166,138.127C161.345,137.869,156.546,137.738,151.739,137.738ZM575,1418a64.833,64.833,0,0,1-23.55-4.361,62.439,62.439,0,0,1-10.277-5.117,60.149,60.149,0,0,1-8.954-6.777,57.264,57.264,0,0,1-7.388-8.214,54.242,54.242,0,0,1-5.578-9.427,51.456,51.456,0,0,1,0-43.206,54.246,54.246,0,0,1,5.578-9.427,57.252,57.252,0,0,1,7.388-8.214,60.145,60.145,0,0,1,8.954-6.777,62.442,62.442,0,0,1,10.277-5.117,65.753,65.753,0,0,1,47.1,0,62.416,62.416,0,0,1,10.276,5.117,60.142,60.142,0,0,1,8.954,6.777,57.257,57.257,0,0,1,7.387,8.214,54.226,54.226,0,0,1,5.578,9.427,51.456,51.456,0,0,1,0,43.206,54.228,54.228,0,0,1-5.578,9.427,57.272,57.272,0,0,1-7.387,8.214,60.149,60.149,0,0,1-8.954,6.777,62.423,62.423,0,0,1-10.276,5.117A64.827,64.827,0,0,1,575,1418Zm342-11a33.974,33.974,0,0,1-13.04-2.572,33.44,33.44,0,0,1-10.648-7.014,32.587,32.587,0,0,1-7.18-10.4,32.142,32.142,0,0,1,0-25.48,32.587,32.587,0,0,1,7.18-10.4,33.44,33.44,0,0,1,10.648-7.014,34.341,34.341,0,0,1,26.08,0,33.436,33.436,0,0,1,10.648,7.014,32.59,32.59,0,0,1,7.179,10.4,32.142,32.142,0,0,1,0,25.48,32.592,32.592,0,0,1-7.179,10.4,33.44,33.44,0,0,1-10.648,7.014A33.972,33.972,0,0,1,917,1407Zm-674,0a33.973,33.973,0,0,1-13.04-2.572,33.44,33.44,0,0,1-10.648-7.014,32.587,32.587,0,0,1-7.18-10.4,32.142,32.142,0,0,1,0-25.48,32.587,32.587,0,0,1,7.18-10.4,33.44,33.44,0,0,1,10.648-7.014,34.34,34.34,0,0,1,26.08,0,33.44,33.44,0,0,1,10.648,7.014,32.591,32.591,0,0,1,7.179,10.4,32.142,32.142,0,0,1,0,25.48,32.593,32.593,0,0,1-7.179,10.4,33.44,33.44,0,0,1-10.648,7.014A33.97,33.97,0,0,1,243,1407ZM1427.5,139.46a33.972,33.972,0,0,1-13.04-2.572,33.442,33.442,0,0,1-10.648-7.014,32.588,32.588,0,0,1-7.179-10.4,32.142,32.142,0,0,1,0-25.48,32.589,32.589,0,0,1,7.179-10.4,33.441,33.441,0,0,1,10.648-7.014,34.339,34.339,0,0,1,26.08,0,33.441,33.441,0,0,1,10.648,7.014,32.59,32.59,0,0,1,7.179,10.4,32.143,32.143,0,0,1,0,25.48,32.588,32.588,0,0,1-7.179,10.4,33.442,33.442,0,0,1-10.648,7.014A33.972,33.972,0,0,1,1427.5,139.46Zm172-15.46a64.83,64.83,0,0,1-23.549-4.361,62.424,62.424,0,0,1-10.277-5.117,60.145,60.145,0,0,1-8.954-6.777,57.27,57.27,0,0,1-7.387-8.214,54.25,54.25,0,0,1-5.578-9.427,51.459,51.459,0,0,1,0-43.206,54.242,54.242,0,0,1,5.578-9.427,57.273,57.273,0,0,1,7.387-8.214,60.145,60.145,0,0,1,8.954-6.777,62.424,62.424,0,0,1,10.277-5.117,65.757,65.757,0,0,1,47.1,0,62.416,62.416,0,0,1,10.277,5.117,60.145,60.145,0,0,1,8.954,6.777,57.273,57.273,0,0,1,7.387,8.214,54.212,54.212,0,0,1,5.578,9.427,51.456,51.456,0,0,1,0,43.206,54.219,54.219,0,0,1-5.578,9.427,57.263,57.263,0,0,1-7.387,8.214,60.145,60.145,0,0,1-8.954,6.777,62.416,62.416,0,0,1-10.277,5.117A64.831,64.831,0,0,1,1599.5,124Zm332-34.54a33.97,33.97,0,0,1-13.04-2.572,33.441,33.441,0,0,1-10.648-7.014,32.589,32.589,0,0,1-7.179-10.4,32.141,32.141,0,0,1,0-25.48,32.594,32.594,0,0,1,7.179-10.4,33.441,33.441,0,0,1,10.648-7.014,34.339,34.339,0,0,1,26.079,0,33.441,33.441,0,0,1,10.648,7.014,32.594,32.594,0,0,1,7.179,10.4,32.143,32.143,0,0,1,0,25.48,32.59,32.59,0,0,1-7.179,10.4,33.441,33.441,0,0,1-10.648,7.014A33.972,33.972,0,0,1,1931.5,89.459Zm-674,0a33.97,33.97,0,0,1-13.04-2.572,33.441,33.441,0,0,1-10.648-7.014,32.589,32.589,0,0,1-7.179-10.4,32.141,32.141,0,0,1,0-25.48,32.594,32.594,0,0,1,7.179-10.4,33.441,33.441,0,0,1,10.648-7.014,34.34,34.34,0,0,1,26.08,0,33.442,33.442,0,0,1,10.649,7.014,32.589,32.589,0,0,1,7.18,10.4,32.143,32.143,0,0,1,0,25.48,32.587,32.587,0,0,1-7.18,10.4,33.438,33.438,0,0,1-10.649,7.014A33.973,33.973,0,0,1,1257.5,89.459Z" transform="translate(-67.5 -13)" fill="url(#linear-gradient)"/>
</svg>
