<svg xmlns="http://www.w3.org/2000/svg" xmlns:xlink="http://www.w3.org/1999/xlink" width="1824.54" height="1393.365" viewBox="0 0 1824.54 1393.365">
  <defs>
    <linearGradient id="linear-gradient" x1="0.373" y1="0.678" x2="0.893" y2="-0.012" gradientUnits="objectBoundingBox">
      <stop offset="0" stop-color="#a5dbff"/>
      <stop offset="1" stop-color="#cf87ff"/>
    </linearGradient>
  </defs>
  <path id="intro" d="M1413.09,240.637s79.51-37.743,184.317,0,75.8,98.342,0,145.623-216.213,133.392,0,268.253,0,401.1,0,401.1-295.719,189.4-471.033,0-302.8-9.323-408.168-254.59S367.5,582.274,367.5,582.274,48.574,599.143,48.574,368.06c94.921,30.942,80.375,83.161,178.277,2.391C329.284,353.47,353.181,219.945,615.044,270.3,783.555,375.4,1045.6,186.606,1045.6,186.606S1219.569,66.619,1335.933,48.674c43.952-6.778,1.128-22.6,40.293,19.708,142.417,153.859,0,187.584,0,187.584Z" transform="translate(1654.739 1441.987) rotate(-169)" fill="url(#linear-gradient)"/>
</svg>
