<svg xmlns="http://www.w3.org/2000/svg" xmlns:xlink="http://www.w3.org/1999/xlink" width="1921" height="240.458" viewBox="0 0 1921 240.458">
  <defs>
    <linearGradient id="linear-gradient" x1="0.951" x2="0.059" y2="1.261" gradientUnits="objectBoundingBox">
      <stop offset="0" stop-color="#cf87ff"/>
      <stop offset="1" stop-color="#a5dbff"/>
    </linearGradient>
  </defs>
  <path id="Subtraction_3" data-name="Subtraction 3" d="M1104.655,240.458h-5.814c-22.82-2.294-45.029-5.6-66.009-9.821-11.872-2.39-23.612-5.126-34.9-8.131-12.1-3.223-24.026-6.848-35.437-10.773-28.689-9.719-57.845-22.7-86.042-35.262l-.005,0-.012-.005-.066-.029-.014-.006-.092-.041-.051-.023c-14.332-6.382-29.151-12.982-43.751-19.077-16.442-6.865-30.826-12.337-43.973-16.728a348.82,348.82,0,0,0-43.973-11.832c-7.484-1.459-14.881-2.574-21.986-3.315a212.826,212.826,0,0,0-21.987-1.173,186.378,186.378,0,0,0-26.049,1.8,217.773,217.773,0,0,0-34.546,7.977,344.139,344.139,0,0,0-34.547,13.022c-23.042,9.994-46.446,22.423-69.079,34.443l-.015.008-.019.01-.031.017c-24.533,13.028-49.9,26.5-74.857,36.9a309.087,309.087,0,0,1-37.453,13.1c-6.362,1.741-12.663,3.18-18.727,4.277a179.709,179.709,0,0,1-18.726,2.4c-3.744.256-7.59.385-11.433.385h-.023c-5.849,0-11.918-.3-18.04-.9-5.837-.567-11.914-1.421-18.062-2.537a303.459,303.459,0,0,1-36.124-9.057c-24.093-7.5-48.564-17.657-72.23-27.479l-.017-.007-.009,0-.011,0-.009,0c-21.634-8.979-44-18.263-66.006-25.486a338.638,338.638,0,0,0-33.017-9.171A223.6,223.6,0,0,0,98.5,159.056c-4.682-.343-9.481-.518-14.263-.518a219.62,219.62,0,0,0-30.39,2.184,264.745,264.745,0,0,0-29.884,6.036C16.17,168.792,8.108,171.251,0,174.067v-123c6.234-2.166,12.453-4.125,18.484-5.823a272.208,272.208,0,0,1,32.556-7.113,221.327,221.327,0,0,1,33.2-2.6c4.781,0,9.58.174,14.261.518a223.512,223.512,0,0,1,33.018,4.878A338.683,338.683,0,0,1,164.536,50.1c22.012,7.227,44.383,16.511,66.018,25.491l.018.007.005,0,.005,0c23.673,9.825,48.151,19.984,72.24,27.481a303.445,303.445,0,0,0,36.125,9.058c6.144,1.116,12.22,1.97,18.06,2.538,6.117.6,12.194.9,18.061.9,3.845,0,7.691-.13,11.432-.385a179.846,179.846,0,0,0,18.726-2.4c6.051-1.093,12.351-2.532,18.727-4.276a309.67,309.67,0,0,0,37.453-13.106c24.962-10.4,50.333-23.873,74.868-36.9l.01,0,.03-.016.022-.012c22.639-12.022,46.048-24.453,69.071-34.438a344.225,344.225,0,0,1,34.546-13.022A217.776,217.776,0,0,1,674.5,3.039a186.421,186.421,0,0,1,26.049-1.8,212.665,212.665,0,0,1,21.987,1.173c7.1.741,14.494,1.856,21.988,3.315A349.018,349.018,0,0,1,788.5,17.556c13.153,4.393,27.536,9.865,43.971,16.728,14.674,6.127,29.5,12.729,43.83,19.113l.023.01.055.024.065.029.019.008c28.2,12.559,57.351,25.544,86.042,35.264,11.651,4.007,23.822,7.7,36.177,10.97,11.517,3.05,23.5,5.816,35.6,8.223,21.346,4.244,43.948,7.538,67.176,9.79,12.046-.948,23.984-2.167,35.484-3.625,12.855-1.628,25.594-3.606,37.864-5.881,13.448-2.493,26.721-5.414,39.451-8.682,13.8-3.543,27.337-7.591,40.245-12.031,28.686-9.718,57.845-22.7,86.044-35.264l.012-.005.035-.015.13-.058c14.35-6.39,29.188-13,43.811-19.1,16.448-6.867,30.832-12.339,43.974-16.728a349.011,349.011,0,0,1,43.972-11.832c7.469-1.456,14.867-2.571,21.987-3.315A212.693,212.693,0,0,1,1516.451,0,186.435,186.435,0,0,1,1542.5,1.8a217.8,217.8,0,0,1,34.547,7.978A344.272,344.272,0,0,1,1611.594,22.8c23.022,9.985,46.424,22.412,69.055,34.43l.025.013.015.008.011.005.009.005.008,0c24.539,13.032,49.914,26.507,74.879,36.908a309.564,309.564,0,0,0,37.452,13.1c6.373,1.744,12.674,3.183,18.726,4.277a179.7,179.7,0,0,0,18.726,2.4c3.741.255,7.587.385,11.433.385,5.867,0,11.945-.3,18.062-.9,5.843-.568,11.92-1.422,18.061-2.537a303.583,303.583,0,0,0,36.124-9.058c2.217-.69,4.512-1.426,6.82-2.188v123c-2.3.76-4.6,1.5-6.823,2.189a303.775,303.775,0,0,1-36.123,9.058c-6.148,1.116-12.224,1.97-18.061,2.538-6.129.6-12.205.9-18.059.9h-.039c-3.811,0-7.645-.13-11.4-.385a179.887,179.887,0,0,1-18.726-2.4c-6.046-1.092-12.347-2.53-18.726-4.276a309.587,309.587,0,0,1-37.453-13.105c-24.961-10.4-50.34-23.877-74.883-36.909l0,0-.013-.007-.005,0-.009,0-.015-.008c-22.635-12.02-46.04-24.45-69.07-34.438a344.419,344.419,0,0,0-34.546-13.022A217.78,217.78,0,0,0,1542.5,124.8a186.41,186.41,0,0,0-26.049-1.8,212.892,212.892,0,0,0-21.987,1.173c-7.1.741-14.5,1.856-21.987,3.315A349.05,349.05,0,0,0,1428.5,139.32c-13.147,4.391-27.531,9.863-43.972,16.728-14.649,6.116-29.513,12.737-43.887,19.14l-.071.031-.014.005-.013.006-.013.006-.005,0c-28.195,12.557-57.349,25.542-86.029,35.257-12.62,4.341-25.845,8.307-39.309,11.789-12.459,3.222-25.436,6.111-38.569,8.585-12.028,2.266-24.508,4.247-37.092,5.887C1128.21,238.234,1116.476,239.479,1104.655,240.458Z" transform="translate(0)" opacity="0.23" fill="url(#linear-gradient)"/>
</svg>
